<?xml version="1.0" encoding="UTF-8"?>
<svg width="835" height="433" version="1.1" viewBox="0 0 835 433" xml:space="preserve" xmlns="http://www.w3.org/2000/svg"><defs><clipPath id="q"><path d="m55.3 36.9h558v277h-558z"/></clipPath><clipPath id="p"><path d="m55.3 36.9h558v277h-558z"/></clipPath><clipPath id="o"><path d="m55.3 36.9h558v277h-558z"/></clipPath><clipPath id="n"><path d="m55.3 36.9h558v277h-558z"/></clipPath><clipPath id="m"><path d="m55.3 36.9h558v277h-558z"/></clipPath><clipPath id="l"><path d="m55.3 36.9h558v277h-558z"/></clipPath><clipPath id="k"><path d="m55.3 36.9h558v277h-558z"/></clipPath><clipPath id="j"><path d="m55.3 36.9h558v277h-558z"/></clipPath><clipPath id="i"><path d="m55.3 36.9h558v277h-558z"/></clipPath><clipPath id="h"><path d="m55.3 36.9h558v277h-558z"/></clipPath><clipPath id="g"><path d="m55.3 36.9h558v277h-558z"/></clipPath><clipPath id="f"><path d="m55.3 36.9h558v277h-558z"/></clipPath><clipPath id="e"><path d="m55.3 36.9h558v277h-558z"/></clipPath><clipPath id="d"><path d="m55.3 36.9h558v277h-558z"/></clipPath><clipPath id="c"><path d="m55.3 36.9h558v277h-558z"/></clipPath><clipPath id="b"><path d="m55.3 36.9h558v277h-558z"/></clipPath><clipPath id="a"><path d="m55.3 36.9h558v277h-558z"/></clipPath></defs><g transform="matrix(1.33 0 0 -1.33 0 433)"><g><path d="m0 0h626v325h-626z" fill="#fff"/><path d="m55.3 36.9h558v277h-558z" fill="#fff"/><path d="m613 36.9v-3.5" stroke="#000" stroke-linejoin="round" stroke-miterlimit="10" stroke-width=".8"/><text transform="matrix(1 0 0 -1 608 22.8)" fill="#000000" font-family="Helvetica" font-size="10px"><tspan x="0 5.5599999" y="0">50</tspan></text><path d="m502 36.9v-3.5" stroke="#000" stroke-linejoin="round" stroke-miterlimit="10" stroke-width=".8"/><text transform="matrix(1 0 0 -1 496 22.8)" fill="#000000" font-family="Helvetica" font-size="10px"><tspan x="0 5.5599999" y="0">60</tspan></text><path d="m390 36.9v-3.5" stroke="#000" stroke-linejoin="round" stroke-miterlimit="10" stroke-width=".8"/><text transform="matrix(1 0 0 -1 385 22.8)" fill="#000000" font-family="Helvetica" font-size="10px"><tspan x="0 5.5599999" y="0">70</tspan></text><path d="m279 36.9v-3.5" stroke="#000" stroke-linejoin="round" stroke-miterlimit="10" stroke-width=".8"/><text transform="matrix(1 0 0 -1 273 22.8)" fill="#000000" font-family="Helvetica" font-size="10px"><tspan x="0 5.5599999" y="0">80</tspan></text><path d="m167 36.9v-3.5" stroke="#000" stroke-linejoin="round" stroke-miterlimit="10" stroke-width=".8"/><text transform="matrix(1 0 0 -1 161 22.8)" fill="#000000" font-family="Helvetica" font-size="10px"><tspan x="0 5.5599999" y="0">90</tspan></text><path d="m55.3 36.9v-3.5" stroke="#000" stroke-linejoin="round" stroke-miterlimit="10" stroke-width=".8"/><text transform="matrix(1 0 0 -1 47 22.8)" fill="#000000" font-family="Helvetica" font-size="10px"><tspan x="0 5.5599999 11.12" y="0">100</tspan></text><text transform="matrix(1 0 0 -1 291 9.4)" fill="#000000" font-family="Helvetica" font-size="10px"><tspan x="0 6.1100001 9.4399996 15 17.780001 20.559999 22.780001 27.780001 30.559999 35.560001 41.119999 46.119999 51.68 55.009998 60.57 66.129997 71.690002 74.470001 77.25 86.139999" y="0">Traffic coverage [%]</tspan></text><path d="m55.3 36.9h-3.5" stroke="#000" stroke-linejoin="round" stroke-miterlimit="10" stroke-width=".8"/><text transform="matrix(1 0 0 -1 42.8 33.3)" fill="#000000" font-family="Helvetica" font-size="10px"><tspan x="0" y="0">1</tspan></text><path d="m55.3 106h-3.5" stroke="#000" stroke-linejoin="round" stroke-miterlimit="10" stroke-width=".8"/><text transform="matrix(1 0 0 -1 37.2 103)" fill="#000000" font-family="Helvetica" font-size="10px"><tspan x="0 5.5599999" y="0">10</tspan></text><path d="m55.3 176h-3.5" stroke="#000" stroke-linejoin="round" stroke-miterlimit="10" stroke-width=".8"/><text transform="matrix(1 0 0 -1 31.6 172)" fill="#000000" font-family="Helvetica" font-size="10px"><tspan x="0 5.5599999 11.12" y="0">100</tspan></text><path d="m55.3 245h-3.5" stroke="#000" stroke-linejoin="round" stroke-miterlimit="10" stroke-width=".8"/><text transform="matrix(1 0 0 -1 26.1 241)" fill="#000000" font-family="Helvetica" font-size="10px"><tspan x="0 5.5599999 11.12 16.68" y="0">1000</tspan></text><path d="m55.3 314h-3.5" stroke="#000" stroke-linejoin="round" stroke-miterlimit="10" stroke-width=".8"/><text transform="matrix(1 0 0 -1 20.5 311)" fill="#000000" font-family="Helvetica" font-size="10px"><tspan x="0 5.5599999 11.12 16.68 22.24" y="0">10000</tspan></text></g><g stroke="#000" stroke-linejoin="round" stroke-miterlimit="10" stroke-width=".6"><path d="m55.3 57.8h-2"/><path d="m55.3 70h-2"/><path d="m55.3 78.7h-2"/><path d="m55.3 85.4h-2"/><path d="m55.3 90.9h-2"/><path d="m55.3 95.5h-2"/><path d="m55.3 99.5h-2"/><path d="m55.3 103h-2"/><path d="m55.3 127h-2"/><path d="m55.3 139h-2"/><path d="m55.3 148h-2"/><path d="m55.3 155h-2"/><path d="m55.3 160h-2"/><path d="m55.3 165h-2"/><path d="m55.3 169h-2"/><path d="m55.3 172h-2"/><path d="m55.3 196h-2"/><path d="m55.3 209h-2"/><path d="m55.3 217h-2"/><path d="m55.3 224h-2"/><path d="m55.3 229h-2"/><path d="m55.3 234h-2"/><path d="m55.3 238h-2"/><path d="m55.3 242h-2"/><path d="m55.3 266h-2"/><path d="m55.3 278h-2"/><path d="m55.3 287h-2"/><path d="m55.3 293h-2"/><path d="m55.3 299h-2"/><path d="m55.3 303h-2"/><path d="m55.3 307h-2"/><path d="m55.3 311h-2"/></g><text transform="matrix(0 1 1 0 14.4 99)" fill="#000000" font-family="Helvetica" font-size="10px"><tspan x="0 6.1100001 8.3299999 13.89 21.110001 23.889999 26.67 32.23 37.790001 40.009998 45.57 48.349998 53.91 58.91 63.91 69.470001 75.029999 80.589996 86.150002 91.150002 96.150002 98.93 102.26 107.82 113.38 118.94 123.94 126.72 128.94 134.5 140.06 142.84 145.62 150.62" y="0">Flow table occupancy reduction [x]</tspan></text><g clip-path="url(#q)"><path d="m55.4 38 .358 11.6.407 8.35 2.16 27.5 1.05 8.3 1.12 7.07 1.22 6.25 1.28 5.4 1.4 4.96 1.58 4.78 1.82 4.76 2.07 4.75 2.32 4.76 2.61 4.84 2.92 4.92 2.97 4.57 3.27 4.6 3.29 4.23 3.24 3.83 3.52 3.83 3.82 3.83 4.18 3.86 4.56 3.88 4.49 3.54 4.89 3.58 5.34 3.63 5.84 3.68 5.65 3.31 6.13 3.33 6.65 3.35 7.21 3.36 7.8 3.36 8.43 3.36 9.1 3.36 9.8 3.36 10.5 3.37 12.7 3.83 13.7 3.88 16.4 4.4 19.4 4.96 20.8 5.1 22.3 5.23 21.5 4.83 20.5 4.37 19.3 3.89 20.4 3.87 19 3.38 20.3 3.39 21.8 3.44 27.1 4.04 141 20 12.3 1.81v0" fill="none" stroke="#000" stroke-linecap="square" stroke-linejoin="round" stroke-miterlimit="10"/></g><g clip-path="url(#p)"><path d="m55.4 38.2.311 9.31.552 12.8.75 12.5.836 10.1 1.24 10.5 1.77 10.9 2.74 12.4 3.54 12 4.55 11.3 6.39 11.6 8.75 11.7 11.7 11.5 16.8 12.3 22.1 12.2 30.7 12.8 43.2 13.8 54.7 14.2 62.1 12.5 84.5 12.7 137 17.2 77.2 9.74" fill="none" stroke="#000" stroke-linecap="square" stroke-linejoin="round" stroke-miterlimit="10" stroke-opacity=".5"/></g><g clip-path="url(#o)"><path d="m55.4 38.1.309 9.35.543 12.8.737 12.5.829 10.1 1.24 10.6 1.78 11.1 2.71 12.4 3.48 11.9 4.52 11.4 6.41 11.8 8.41 11.6 11.8 12 16.5 12.6 20.9 12.1 30.6 13.1 40.5 13.7 53.5 14.6 56.5 12.2 74 11.9 142 18.2 94.2 12.6" fill="none" stroke="#1f77b4" stroke-linecap="square" stroke-linejoin="round" stroke-miterlimit="10" stroke-opacity=".5"/></g><g clip-path="url(#n)"><path d="m55.4 38.3.321 9.29.578 13 .772 12.6.863 10.1 1.28 10.6 1.83 11 2.81 12.4 3.57 11.8 4.66 11.2 6.6 11.7 8.89 11.6 12.2 11.7 16.7 11.9 22.9 12 31.3 12.4 46.7 14 58.4 14.6 62 11.8 96.1 13.9 144 17.8 48.8 6.06" fill="none" stroke="#ff7f0e" stroke-linecap="square" stroke-linejoin="round" stroke-miterlimit="10" stroke-opacity=".5"/></g><g clip-path="url(#m)"><path d="m55.4 38.3.305 9.23.548 12.9.773 13 .813 10.1 1.2 10.5 1.71 10.8 2.66 12.3 3.49 12.1 4.43 11.3 6.19 11.5 8.61 11.8 11.3 11.4 16.7 12.4 21.5 12.1 30.2 12.8 41.6 13.3 54 13.9 61.3 12.2 86.6 12.6 141 17.4 76.6 9.63" fill="none" stroke="#2ca02c" stroke-linecap="square" stroke-linejoin="round" stroke-miterlimit="10" stroke-opacity=".5"/></g><g clip-path="url(#l)"><path d="m55.4 38 .331 9.31.588 12.8.793 12.5.894 10.2 1.31 10.5 1.88 10.9 2.91 12.3 3.8 12.1 4.83 11.2 6.76 11.6 9.47 12 12.3 11.5 18.1 12.5 23.7 12.4 32.2 12.8 45.9 14.3 55.3 13.9 65.9 12.8 87 12.6 198 24.4" fill="none" stroke="#d62728" stroke-linecap="square" stroke-linejoin="round" stroke-miterlimit="10" stroke-opacity=".5"/></g><g clip-path="url(#k)"><path d="m55.4 38.3.291 9.39.509 12.6.684 12.2.788 10.1 1.16 10.4 1.68 10.9 2.62 12.3 3.4 12 4.35 11.3 6.02 11.4 8.45 11.8 11 11.2 16.2 12.1 21.7 12.3 29.6 12.7 41.7 13.7 52.8 14.1 64.8 13.5 79.9 12.7 224 28.4" fill="none" stroke="#9467bd" stroke-linecap="square" stroke-linejoin="round" stroke-miterlimit="10" stroke-opacity=".5"/></g><g clip-path="url(#j)"><path d="m55.3 37.3.244.579.0855 1.18 4.16 3.31 27.1 4.36 3.19 3.55 40.3 4.33 5.22 3.96 5.5 3.2.772 2.46.72 2.37 4.82 2.47 1.71 2.57 5.33 2.73 11.5 2.97 1.78 3.23 4.26 3.32 5.81 3.45 6.09 3.63 3.85 3.77 4.65 3.9 7.61 3.99 10.4 4.09 11.2 4.13 7.17 4.29 8.88 4.27 11.1 4.41 7.83 4.45 9.26 4.35 11.7 4.53 19.2 4.66 24.4 4.7 27.6 4.96 16.4 5.14 14.8 5.17 41.3 5.11 17.7 5.19 18 5.19 13.9 4.97 14.5 5.29 21.5 5.59 31 6.28 26.4 6.65 27.8 6.22 28.2 6.64 6.91 1.87" fill="none" stroke="#1f77b4" stroke-dasharray="3.7, 1.6" stroke-linejoin="round" stroke-miterlimit="10" stroke-opacity=".5"/></g><g clip-path="url(#i)"><path d="m55.3 37.3.248.586.315 1.22.262 3.31.426 4.38 1.51 3.59 70.1 4.33 1.38 4.01 5.27 3.15 7.72 2.51.82 2.4 2.74 2.43 6.41 2.54 5.18 2.76 6 2.98 5.14 3.22 3.04 3.26 2.23 3.44 7.91 3.64 6.84 3.82 5.27 3.99 11.2 3.96 7.21 4.02 12.8 4.18 7.22 4.22 5.35 4.36 8.45 4.42 15 4.39 10.9 4.24 9.69 4.4 18.8 4.54 19.7 4.81 24.7 5.04 12.6 5.18 18.5 4.89 24.1 5.07 18.9 5.1 16.9 5.19 24.2 5.14 14.3 5.21 21.9 5.56 42.5 5.77 29.4 6.46 23.8 5.98 31.8 6.74 2.88.77" fill="none" stroke="#1f77b4" stroke-linecap="square" stroke-linejoin="round" stroke-miterlimit="10" stroke-opacity=".5"/></g><g clip-path="url(#h)"><path d="m55.3 37.3.0682.599.192 1.28 6.5 3.39.719 4.39 1.12 3.61 2.09 4.32 2.46 3.95 7.9 3.2 7.57 2.51 4.26 2.42.783 2.54 1.74 2.53 1.26 2.78 2.13 2.99 4.12 3.24 3.11 3.29 4.53 3.39 5.25 3.53 19 3.67 7.56 3.74 5.77 3.71 7.84 3.83 10.9 3.77 11.1 3.93 13.1 3.89 12.1 3.78 10.9 3.74 11.8 5.44 14.3 5.12 18.2 4.82 12.6 4.12 15.7 4.28 14.5 4.2 28 8.27 21.9 5.58 13.8 4.6 18.7 9.65 18.5 6.22 26.5 6.94 56.7 12.6 30.8 6.27 27.3 6.35 26.3 6.72 36.5 7.66 25.7 5.66" fill="none" stroke="#ff7f0e" stroke-dasharray="3.7, 1.6" stroke-linejoin="round" stroke-miterlimit="10" stroke-opacity=".5"/></g><g clip-path="url(#g)"><path d="m55.3 37.3.178.6.0827 1.26 1.62 3.36 1.01 4.4 6.57 3.59 1.65 4.32.86 3.96 5.71 3.22 6.72 2.54 1.33 2.41.857 2.47 2.02 2.53 2.1 2.75 5.56 2.95 1.81 3.2 2.59 3.22 7.33 3.4 5.84 3.55 5.79 3.67 8.05 3.78 16.8 7.95 19.5 3.97 7.83 4.12 6.6 4.12 9.73 3.79 14.2 3.84 13 4.26 11.4 4.15 13.3 5.16 17.9 5.38 15.7 4.29 14 4.32 15.5 4.16 17.5 4.54 13.1 12.2 19.4 4.79 16.8 4.99 22.8 4.91 19.5 5.35 29.8 5.92 24.9 6.86 27.8 6.28 29.5 6.97 36.8 7.1 33.1 7.39 37.6 7.32" fill="none" stroke="#ff7f0e" stroke-linecap="square" stroke-linejoin="round" stroke-miterlimit="10" stroke-opacity=".5"/></g><g clip-path="url(#f)"><path d="m55.3 37.3.145.589.08 1.19.702 3.42.756 4.4 16.5 3.53 4.26 4.42 7.34 4.01 20.8 3.21.73 2.57 3.64 2.48 2.06 2.46 2.19 2.54 1.81 2.71 2.42 3.07 4.55 3.21 2.43 3.2 3.14 3.37 4.61 3.62 30.7 8.34 6.03 3.94 8.59 3.94 18.2 4.62 6.1 4.6 7.83 4.19 12.6 4.18 8.32 4.35 7.48 4.28 11.1 4.42 12.3 4.48 11.3 4.62 12.5 5.63 22.2 5.24 14.9 5.02 18.8 5.12 15.6 4.9 17 4.96 21.2 4.98 21.1 5.59 22.9 5.45 24.2 5.84 34 6.45 23.7 6.75 31.3 6.81 32.1 7.81 30.2 6.83 11.3 2.36" fill="none" stroke="#2ca02c" stroke-dasharray="3.7, 1.6" stroke-linejoin="round" stroke-miterlimit="10" stroke-opacity=".5"/></g><g clip-path="url(#e)"><path d="m55.3 37.3.0304.584 1.7 1.21.452 3.27.839 4.31 6.7 3.43 17.3 4.22 13 3.83 3.88 3.24.754 2.85 8.02 2.53 4.21 2.54 2.65 2.64 2.15 3.07 1.71 3.13 5.05 3.24 4.68 3.28 9.93 3.49 5.71 3.72 9.77 3.76 4.45 3.92 11.9 3.98 7.65 3.92 15.3 4.08 8.88 4.13 7.71 4.11 10.4 4 7.25 4 12.1 4.03 14 4.08 13.2 4.11 14.5 6.38 14.9 5.55 17 5.27 16 5.13 12.2 5.71 15.6 4.84 20.6 5.44 22.5 5.41 19.3 4.9 23.2 5.42 21.3 6.65 24.4 5.6 30.8 6.34 30.8 6.03 28.7 6.5 36 7.65 12.5 3.32" fill="none" stroke="#2ca02c" stroke-linecap="square" stroke-linejoin="round" stroke-miterlimit="10" stroke-opacity=".5"/></g><g clip-path="url(#d)"><path d="m55.3 37.3.0364.611.0994 1.2.413 3.35 3.01 4.36 19.3 3.57 12.7 4.37.994 3.95 1.46 3.19 2.25 2.69 4.87 2.48 1.12 2.54 1.58 2.72 2.95 2.78 1.91 3.05 4.36 3.27 4.86 3.23 2.58 3.57 3.47 3.7 6.51 3.99 4.76 4.18 11.8 4.24 5.88 4.13 7 4.35 9.91 4.36 9.51 4.38 8.49 4.41 8.06 4.49 14.7 4.58 9.5 4.59 13.6 4.78 17.2 4.83 13.6 4.98 16.2 5.31 14.3 5.24 13.1 5.26 11.1 5.12 17.2 4.9 23.9 5 18.5 5.26 28.1 5.69 33.7 6.61 22.2 6.23 33 6.53 28.7 6.54 36.1 6.89 30.4 7.66 28.4 7.58 8.31 2.56" fill="none" stroke="#d62728" stroke-dasharray="3.7, 1.6" stroke-linejoin="round" stroke-miterlimit="10" stroke-opacity=".5"/></g><g clip-path="url(#c)"><path d="m55.3 37.3.0788.594.262 1.24.221 3.37 1.75 4.36 6.13 3.59 1.36 4.33 3.88 3.97 2.83 3.19 2.33 2.72 1.36 2.49 3.2 2.56 1.29 2.6 7.39 2.93 6.19 6.43 3.47 3.28 10.1 3.56 3.57 3.73 13.3 3.94 3.72 4.01 11.8 4.15 6.76 4.1 4.63 4.28 6.88 4.35 11.4 4.46 6.46 4.25 10.2 4.35 10.8 4.45 10 4.52 14 4.79 15 4.84 15.6 5.07 12.8 5.04 13.6 5.12 24.1 4.88 12.9 5.12 22.8 5.01 19.3 5.25 20.7 5.06 20.5 5.8 31.2 6.3 29.4 6.82 29.3 6.38 31.8 6.76 29.6 6.67 36.2 8.53 36.6 7.05 4.86 1.38" fill="none" stroke="#d62728" stroke-linecap="square" stroke-linejoin="round" stroke-miterlimit="10" stroke-opacity=".5"/></g><g clip-path="url(#b)"><path d="m55.3 37.2.0215.606.147 1.18.185 3.29.325 4.22 5 3.4 11.5 4.12 10.2 3.68.39 2.87.931 2.44 1.65 2.29 3.51 2.31 3.98 2.39 8.27 2.58 12.3 2.84 9.11 3 3.1 3.01 5.54 3.24 5.43 3.5 5.97 3.56 8.18 3.62 4.09 3.65 7.08 3.69 7.22 3.85 7.83 3.92 9.88 4.03 9.04 4.49 9.38 6.41 9 5.85 16.7 4.86 11.6 4.87 13.7 4.99 15.9 5.03 15.6 5.2 13.2 5.21 11.3 5.33 20.2 5.16 12.2 4.37 16 5.41 24.5 5.34 26.8 5.32 27.3 5.7 38.5 6.48 42.1 6.43 32.8 8.17 22.5 6.53 37.3 7.8 14.3 3.07" fill="none" stroke="#9467bd" stroke-dasharray="3.7, 1.6" stroke-linejoin="round" stroke-miterlimit="10" stroke-opacity=".5"/></g><g clip-path="url(#a)"><path d="m55.3 37.3.0218.594.0689 1.2 5.09 3.28.432 4.24 5.45 3.41 10.9 4.1 2.01 3.67 1.91 2.85.399 2.43 6.87 2.28.838 2.29 7.73 2.41 1.92 2.56 2.31 2.81 4.34 2.99 3.32 2.97 7.67 3.23 5.77 3.55 7.01 3.62 12.2 3.61 13.1 3.72 5.83 3.75 11.3 4.02 12.1 4.31 15.8 4.49 6.95 5.17 9.28 5.37 9.38 5.27 11.1 4.9 11.2 4.8 23.2 5.06 12.6 5.05 17.7 5.55 14.3 5.14 18 5 14.5 4.62 20.2 5.17 12.8 5.2 26.5 5.06 21.7 5.7 26.4 5.85 28.7 6.65 19.5 6.54 28.6 6.63 38.7 6.6 34 7.19 22 3.93" fill="none" stroke="#9467bd" stroke-linecap="square" stroke-linejoin="round" stroke-miterlimit="10" stroke-opacity=".5"/></g><g fill="none" stroke="#000" stroke-linecap="square" stroke-miterlimit="10" stroke-width=".8"><path d="m55.3 36.9v277"/><path d="m613 36.9v277"/><path d="m55.3 36.9h558"/><path d="m55.3 314h558"/></g><path d="m495 39.9h115c.8 0 1.2.4 1.2 1.2v146c0 .8-.4 1.2-1.2 1.2h-115c-.8 0-1.2-.4-1.2-1.2v-146c0-.8.4-1.2 1.2-1.2z" fill="#fff" fill-opacity=".8" stroke="#ccc" stroke-miterlimit="10" stroke-opacity=".8"/><path d="m496 184h12" fill="none" stroke="#000" stroke-linecap="square" stroke-linejoin="round" stroke-miterlimit="10"/><text transform="matrix(1 0 0 -1 513 182)" fill="#000000" font-family="Helvetica" font-size="6px"><tspan x="0 4.9980001 6.3299999 9.3299999 10.998 14.334 16.332001" y="0">Mixture</tspan></text><path d="m496 176h12" fill="none" stroke="#000" stroke-linecap="square" stroke-linejoin="round" stroke-miterlimit="10" stroke-opacity=".5"/><text transform="matrix(1 0 0 -1 513 174)" fill="#000000" font-family="Helvetica" font-size="6px"><tspan x="0 4.3319998 7.6680002 9.3360004 12.672 14.34 16.337999 19.674 21.006001 22.337999" y="0">Data (all)</tspan></text><path d="m496 167h12" fill="none" stroke="#1f77b4" stroke-linecap="square" stroke-linejoin="round" stroke-miterlimit="10" stroke-opacity=".5"/><text transform="matrix(1 0 0 -1 513 165)" fill="#000000" font-family="Helvetica" font-size="6px"><tspan x="0 4.3319998 7.6680002 9.3360004 12.672 14.34 16.337999 18.006001 21.341999 22.674 26.01 27.677999 31.014" y="0">Data (fold 0)</tspan></text><path d="m496 158h12" fill="none" stroke="#ff7f0e" stroke-linecap="square" stroke-linejoin="round" stroke-miterlimit="10" stroke-opacity=".5"/><text transform="matrix(1 0 0 -1 513 156)" fill="#000000" font-family="Helvetica" font-size="6px"><tspan x="0 4.3319998 7.6680002 9.3360004 12.672 14.34 16.337999 18.006001 21.341999 22.674 26.01 27.677999 31.014" y="0">Data (fold 1)</tspan></text><path d="m496 150h12" fill="none" stroke="#2ca02c" stroke-linecap="square" stroke-linejoin="round" stroke-miterlimit="10" stroke-opacity=".5"/><text transform="matrix(1 0 0 -1 513 148)" fill="#000000" font-family="Helvetica" font-size="6px"><tspan x="0 4.3319998 7.6680002 9.3360004 12.672 14.34 16.337999 18.006001 21.341999 22.674 26.01 27.677999 31.014" y="0">Data (fold 2)</tspan></text><path d="m496 141h12" fill="none" stroke="#d62728" stroke-linecap="square" stroke-linejoin="round" stroke-miterlimit="10" stroke-opacity=".5"/><text transform="matrix(1 0 0 -1 513 139)" fill="#000000" font-family="Helvetica" font-size="6px"><tspan x="0 4.3319998 7.6680002 9.3360004 12.672 14.34 16.337999 18.006001 21.341999 22.674 26.01 27.677999 31.014" y="0">Data (fold 3)</tspan></text><path d="m496 133h12" fill="none" stroke="#9467bd" stroke-linecap="square" stroke-linejoin="round" stroke-miterlimit="10" stroke-opacity=".5"/><text transform="matrix(1 0 0 -1 513 130)" fill="#000000" font-family="Helvetica" font-size="6px"><tspan x="0 4.3319998 7.6680002 9.3360004 12.672 14.34 16.337999 18.006001 21.341999 22.674 26.01 27.677999 31.014" y="0">Data (fold 4)</tspan></text><path d="m496 124h12" fill="none" stroke="#1f77b4" stroke-dasharray="3.7, 1.6" stroke-linejoin="round" stroke-miterlimit="10" stroke-opacity=".5"/><text transform="matrix(1 0 0 -1 513 122)" fill="#000000" font-family="Helvetica" font-size="6px"><tspan x="0 4.0019999 7.0019999 8.6700001 10.668 14.004 17.67 19.667999 23.004 26.34 29.34 33.672001 37.007999 40.344002 42.341999 45.678001 48.678001 51.678001 55.014 57.012001 58.68 60.678001 62.346001 65.681999 67.014 70.349998 72.017998 75.353996 77.351997 79.019997 81.017998 84.353996 87.690002 91.026001 94.362" y="0">ExtraTreesRegressor (fold 0) (anon)</tspan></text><path d="m496 115h12" fill="none" stroke="#1f77b4" stroke-linecap="square" stroke-linejoin="round" stroke-miterlimit="10" stroke-opacity=".5"/><text transform="matrix(1 0 0 -1 513 113)" fill="#000000" font-family="Helvetica" font-size="6px"><tspan x="0 4.0019999 7.0019999 8.6700001 10.668 14.004 17.67 19.667999 23.004 26.34 29.34 33.672001 37.007999 40.344002 42.341999 45.678001 48.678001 51.678001 55.014 57.012001 58.68 60.678001 62.346001 65.681999 67.014 70.349998 72.017998 75.353996" y="0">ExtraTreesRegressor (fold 0)</tspan></text><path d="m496 107h12" fill="none" stroke="#ff7f0e" stroke-dasharray="3.7, 1.6" stroke-linejoin="round" stroke-miterlimit="10" stroke-opacity=".5"/><text transform="matrix(1 0 0 -1 513 104)" fill="#000000" font-family="Helvetica" font-size="6px"><tspan x="0 4.0019999 7.0019999 8.6700001 10.668 14.004 17.67 19.667999 23.004 26.34 29.34 33.672001 37.007999 40.344002 42.341999 45.678001 48.678001 51.678001 55.014 57.012001 58.68 60.678001 62.346001 65.681999 67.014 70.349998 72.017998 75.353996 77.351997 79.019997 81.017998 84.353996 87.690002 91.026001 94.362" y="0">ExtraTreesRegressor (fold 1) (anon)</tspan></text><path d="m496 97.9h12" fill="none" stroke="#ff7f0e" stroke-linecap="square" stroke-linejoin="round" stroke-miterlimit="10" stroke-opacity=".5"/><text transform="matrix(1 0 0 -1 513 95.8)" fill="#000000" font-family="Helvetica" font-size="6px"><tspan x="0 4.0019999 7.0019999 8.6700001 10.668 14.004 17.67 19.667999 23.004 26.34 29.34 33.672001 37.007999 40.344002 42.341999 45.678001 48.678001 51.678001 55.014 57.012001 58.68 60.678001 62.346001 65.681999 67.014 70.349998 72.017998 75.353996" y="0">ExtraTreesRegressor (fold 1)</tspan></text><path d="m496 89.2h12" fill="none" stroke="#2ca02c" stroke-dasharray="3.7, 1.6" stroke-linejoin="round" stroke-miterlimit="10" stroke-opacity=".5"/><text transform="matrix(1 0 0 -1 513 87.1)" fill="#000000" font-family="Helvetica" font-size="6px"><tspan x="0 4.0019999 7.0019999 8.6700001 10.668 14.004 17.67 19.667999 23.004 26.34 29.34 33.672001 37.007999 40.344002 42.341999 45.678001 48.678001 51.678001 55.014 57.012001 58.68 60.678001 62.346001 65.681999 67.014 70.349998 72.017998 75.353996 77.351997 79.019997 81.017998 84.353996 87.690002 91.026001 94.362" y="0">ExtraTreesRegressor (fold 2) (anon)</tspan></text><path d="m496 80.5h12" fill="none" stroke="#2ca02c" stroke-linecap="square" stroke-linejoin="round" stroke-miterlimit="10" stroke-opacity=".5"/><text transform="matrix(1 0 0 -1 513 78.4)" fill="#000000" font-family="Helvetica" font-size="6px"><tspan x="0 4.0019999 7.0019999 8.6700001 10.668 14.004 17.67 19.667999 23.004 26.34 29.34 33.672001 37.007999 40.344002 42.341999 45.678001 48.678001 51.678001 55.014 57.012001 58.68 60.678001 62.346001 65.681999 67.014 70.349998 72.017998 75.353996" y="0">ExtraTreesRegressor (fold 2)</tspan></text><path d="m496 71.8h12" fill="none" stroke="#d62728" stroke-dasharray="3.7, 1.6" stroke-linejoin="round" stroke-miterlimit="10" stroke-opacity=".5"/><text transform="matrix(1 0 0 -1 513 69.7)" fill="#000000" font-family="Helvetica" font-size="6px"><tspan x="0 4.0019999 7.0019999 8.6700001 10.668 14.004 17.67 19.667999 23.004 26.34 29.34 33.672001 37.007999 40.344002 42.341999 45.678001 48.678001 51.678001 55.014 57.012001 58.68 60.678001 62.346001 65.681999 67.014 70.349998 72.017998 75.353996 77.351997 79.019997 81.017998 84.353996 87.690002 91.026001 94.362" y="0">ExtraTreesRegressor (fold 3) (anon)</tspan></text><path d="m496 63.1h12" fill="none" stroke="#d62728" stroke-linecap="square" stroke-linejoin="round" stroke-miterlimit="10" stroke-opacity=".5"/><text transform="matrix(1 0 0 -1 513 61)" fill="#000000" font-family="Helvetica" font-size="6px"><tspan x="0 4.0019999 7.0019999 8.6700001 10.668 14.004 17.67 19.667999 23.004 26.34 29.34 33.672001 37.007999 40.344002 42.341999 45.678001 48.678001 51.678001 55.014 57.012001 58.68 60.678001 62.346001 65.681999 67.014 70.349998 72.017998 75.353996" y="0">ExtraTreesRegressor (fold 3)</tspan></text><path d="m496 54.4h12" fill="none" stroke="#9467bd" stroke-dasharray="3.7, 1.6" stroke-linejoin="round" stroke-miterlimit="10" stroke-opacity=".5"/><text transform="matrix(1 0 0 -1 513 52.3)" fill="#000000" font-family="Helvetica" font-size="6px"><tspan x="0 4.0019999 7.0019999 8.6700001 10.668 14.004 17.67 19.667999 23.004 26.34 29.34 33.672001 37.007999 40.344002 42.341999 45.678001 48.678001 51.678001 55.014 57.012001 58.68 60.678001 62.346001 65.681999 67.014 70.349998 72.017998 75.353996 77.351997 79.019997 81.017998 84.353996 87.690002 91.026001 94.362" y="0">ExtraTreesRegressor (fold 4) (anon)</tspan></text><path d="m496 45.8h12" fill="none" stroke="#9467bd" stroke-linecap="square" stroke-linejoin="round" stroke-miterlimit="10" stroke-opacity=".5"/><text transform="matrix(1 0 0 -1 513 43.6)" fill="#000000" font-family="Helvetica" font-size="6px"><tspan x="0 4.0019999 7.0019999 8.6700001 10.668 14.004 17.67 19.667999 23.004 26.34 29.34 33.672001 37.007999 40.344002 42.341999 45.678001 48.678001 51.678001 55.014 57.012001 58.68 60.678001 62.346001 65.681999 67.014 70.349998 72.017998 75.353996" y="0">ExtraTreesRegressor (fold 4)</tspan></text></g></svg>
